<svg width="560" height="480" viewBox="0 0 560 480" fill="none" xmlns="http://www.w3.org/2000/svg">
  <rect width="560" height="480" rx="32" fill="url(#paint0_linear)"/>
  <rect x="48" y="62" width="464" height="356" rx="28" fill="white" fill-opacity="0.86" stroke="#D6E5FF"/>
  <rect x="82" y="96" width="178" height="14" rx="7" fill="#B5CCF9"/>
  <rect x="82" y="124" width="116" height="10" rx="5" fill="#D7E5FF"/>
  <rect x="82" y="168" width="396" height="108" rx="24" fill="url(#paint1_linear)"/>
  <path d="M120 222H220" stroke="white" stroke-width="8" stroke-linecap="round"/>
  <path d="M120 194H284" stroke="#8AB4FF" stroke-width="10" stroke-linecap="round"/>
  <path d="M348 190L386 228L446 166" stroke="white" stroke-width="8" stroke-linecap="round" stroke-linejoin="round"/>
  <rect x="82" y="306" width="184" height="80" rx="22" fill="#EFF5FF"/>
  <rect x="104" y="328" width="78" height="10" rx="5" fill="#2C63EA"/>
  <rect x="104" y="350" width="116" height="10" rx="5" fill="#B5CCF9"/>
  <rect x="292" y="306" width="186" height="80" rx="22" fill="#EFF5FF"/>
  <path d="M338 340C338 317.909 355.909 300 378 300C400.091 300 418 317.909 418 340C418 362.091 400.091 380 378 380C355.909 380 338 362.091 338 340Z" fill="#D6E5FF"/>
  <path d="M378 320V342L392 352" stroke="#123CA7" stroke-width="5" stroke-linecap="round" stroke-linejoin="round"/>
  <path d="M442 320H454" stroke="#2C63EA" stroke-width="8" stroke-linecap="round"/>
  <path d="M442 344H466" stroke="#B5CCF9" stroke-width="8" stroke-linecap="round"/>
  <path d="M442 368H458" stroke="#B5CCF9" stroke-width="8" stroke-linecap="round"/>
  <circle cx="460" cy="114" r="54" fill="#EEF5FF"/>
  <path d="M460 86L496 100V132C496 154.091 480.785 174.44 460 180C439.215 174.44 424 154.091 424 132V100L460 86Z" fill="#2457D6"/>
  <path d="M446 132L456 142L476 120" stroke="white" stroke-width="7" stroke-linecap="round" stroke-linejoin="round"/>
  <defs>
    <linearGradient id="paint0_linear" x1="280" y1="0" x2="280" y2="480" gradientUnits="userSpaceOnUse">
      <stop stop-color="#FDFEFF"/>
      <stop offset="1" stop-color="#E7F0FF"/>
    </linearGradient>
    <linearGradient id="paint1_linear" x1="82" y1="168" x2="478" y2="276" gradientUnits="userSpaceOnUse">
      <stop stop-color="#2C63EA"/>
      <stop offset="1" stop-color="#123CA7"/>
    </linearGradient>
  </defs>
</svg>
