<svg width="700" height="620" viewBox="0 0 700 620" fill="none" xmlns="http://www.w3.org/2000/svg">
  <rect width="700" height="620" rx="40" fill="url(#bg)"/>
  <rect x="52" y="58" width="596" height="504" rx="34" fill="white" fill-opacity="0.78" stroke="#D7E5FF"/>

  <rect x="84" y="94" width="532" height="56" rx="22" fill="#F7FAFF" stroke="#D7E5FF"/>
  <rect x="108" y="116" width="96" height="10" rx="5" fill="#B7CCFA"/>
  <rect x="224" y="116" width="78" height="10" rx="5" fill="#DDE8FF"/>
  <rect x="528" y="110" width="62" height="22" rx="11" fill="#E8F0FF"/>
  <rect x="542" y="116" width="34" height="10" rx="5" fill="#2457D6"/>

  <rect x="84" y="174" width="178" height="324" rx="28" fill="url(#panelBlue)"/>
  <rect x="108" y="204" width="68" height="10" rx="5" fill="#93B5FF"/>
  <rect x="108" y="224" width="92" height="10" rx="5" fill="#D8E5FF"/>
  <circle cx="173" cy="324" r="62" fill="url(#shieldGlow)"/>
  <path d="M173 284L212 300V336C212 359.25 195.982 380.684 173 386C150.018 380.684 134 359.25 134 336V300L173 284Z" stroke="white" stroke-width="6" stroke-linejoin="round"/>
  <path d="M112 404H218" stroke="#93B5FF" stroke-width="10" stroke-linecap="round"/>
  <path d="M112 430H194" stroke="#D8E5FF" stroke-width="10" stroke-linecap="round"/>
  <path d="M112 456H176" stroke="#D8E5FF" stroke-width="10" stroke-linecap="round"/>

  <rect x="288" y="180" width="292" height="162" rx="30" fill="#F8FBFF" stroke="#D7E5FF"/>
  <rect x="316" y="208" width="118" height="12" rx="6" fill="#B7CCFA"/>
  <rect x="316" y="232" width="76" height="10" rx="5" fill="#DDE8FF"/>

  <circle cx="354" cy="286" r="24" fill="#2457D6"/>
  <path d="M354 272L368 280V292L354 300L340 292V280L354 272Z" stroke="white" stroke-width="3.5" stroke-linejoin="round"/>
  <circle cx="434" cy="286" r="24" fill="#E8F0FF" stroke="#C9DAFF"/>
  <path d="M434 274V286L444 294" stroke="#2457D6" stroke-width="3.5" stroke-linecap="round" stroke-linejoin="round"/>
  <circle cx="514" cy="286" r="24" fill="#E8F0FF" stroke="#C9DAFF"/>
  <path d="M504 292L512 284L520 290L528 276" stroke="#2457D6" stroke-width="3.5" stroke-linecap="round" stroke-linejoin="round"/>
  <path d="M378 286H410" stroke="#2457D6" stroke-width="4" stroke-linecap="round"/>
  <path d="M458 286H490" stroke="#2457D6" stroke-width="4" stroke-linecap="round"/>
  <circle cx="410" cy="286" r="4.5" fill="#2457D6"/>
  <circle cx="490" cy="286" r="4.5" fill="#2457D6"/>

  <rect x="288" y="368" width="136" height="130" rx="26" fill="white" stroke="#D7E5FF"/>
  <rect x="316" y="396" width="64" height="10" rx="5" fill="#2457D6"/>
  <rect x="316" y="418" width="86" height="10" rx="5" fill="#DDE8FF"/>
  <path d="M320 462L342 440L366 452L392 426" stroke="#2457D6" stroke-width="5" stroke-linecap="round" stroke-linejoin="round"/>
  <circle cx="320" cy="462" r="6" fill="#2457D6"/>
  <circle cx="342" cy="440" r="6" fill="#2457D6"/>
  <circle cx="366" cy="452" r="6" fill="#2457D6"/>
  <circle cx="392" cy="426" r="6" fill="#2457D6"/>

  <rect x="444" y="368" width="136" height="130" rx="26" fill="white" stroke="#D7E5FF"/>
  <rect x="472" y="396" width="70" height="10" rx="5" fill="#2457D6"/>
  <rect x="472" y="418" width="52" height="10" rx="5" fill="#DDE8FF"/>
  <circle cx="512" cy="454" r="30" fill="#E8F0FF"/>
  <path d="M512 434V454L526 462" stroke="#2457D6" stroke-width="4" stroke-linecap="round" stroke-linejoin="round"/>
  <path d="M318 520H580" stroke="#DDE8FF" stroke-width="2" stroke-dasharray="6 8"/>

  <defs>
    <linearGradient id="bg" x1="350" y1="0" x2="350" y2="620" gradientUnits="userSpaceOnUse">
      <stop stop-color="#FCFEFF"/>
      <stop offset="1" stop-color="#E7F0FF"/>
    </linearGradient>
    <linearGradient id="panelBlue" x1="173" y1="174" x2="173" y2="498" gradientUnits="userSpaceOnUse">
      <stop stop-color="#2E63EA"/>
      <stop offset="1" stop-color="#163FAE"/>
    </linearGradient>
    <linearGradient id="shieldGlow" x1="173" y1="262" x2="173" y2="386" gradientUnits="userSpaceOnUse">
      <stop stop-color="#5A8FFF"/>
      <stop offset="1" stop-color="#2457D6"/>
    </linearGradient>
  </defs>
</svg>
